<svg width="30" height="30" viewBox="0 0 30 30" fill="none" xmlns="http://www.w3.org/2000/svg">
<path d="M14.5234 9.08594C11.5234 9.08594 9.13281 11.5234 9.13281 14.4766C9.13281 17.4766 11.5234 19.8672 14.5234 19.8672C17.4766 19.8672 19.9141 17.4766 19.9141 14.4766C19.9141 11.5234 17.4766 9.08594 14.5234 9.08594ZM14.5234 17.9922C12.6016 17.9922 11.0078 16.4453 11.0078 14.4766C11.0078 12.5547 12.5547 11.0078 14.5234 11.0078C16.4453 11.0078 17.9922 12.5547 17.9922 14.4766C17.9922 16.4453 16.4453 17.9922 14.5234 17.9922ZM21.3672 8.89844C21.3672 8.19531 20.8047 7.63281 20.1016 7.63281C19.3984 7.63281 18.8359 8.19531 18.8359 8.89844C18.8359 9.60156 19.3984 10.1641 20.1016 10.1641C20.8047 10.1641 21.3672 9.60156 21.3672 8.89844ZM24.9297 10.1641C24.8359 8.47656 24.4609 6.97656 23.2422 5.75781C22.0234 4.53906 20.5234 4.16406 18.8359 4.07031C17.1016 3.97656 11.8984 3.97656 10.1641 4.07031C8.47656 4.16406 7.02344 4.53906 5.75781 5.75781C4.53906 6.97656 4.16406 8.47656 4.07031 10.1641C3.97656 11.8984 3.97656 17.1016 4.07031 18.8359C4.16406 20.5234 4.53906 21.9766 5.75781 23.2422C7.02344 24.4609 8.47656 24.8359 10.1641 24.9297C11.8984 25.0234 17.1016 25.0234 18.8359 24.9297C20.5234 24.8359 22.0234 24.4609 23.2422 23.2422C24.4609 21.9766 24.8359 20.5234 24.9297 18.8359C25.0234 17.1016 25.0234 11.8984 24.9297 10.1641ZM22.6797 20.6641C22.3516 21.6016 21.6016 22.3047 20.7109 22.6797C19.3047 23.2422 16.0234 23.1016 14.5234 23.1016C12.9766 23.1016 9.69531 23.2422 8.33594 22.6797C7.39844 22.3047 6.69531 21.6016 6.32031 20.6641C5.75781 19.3047 5.89844 16.0234 5.89844 14.4766C5.89844 12.9766 5.75781 9.69531 6.32031 8.28906C6.69531 7.39844 7.39844 6.69531 8.33594 6.32031C9.69531 5.75781 12.9766 5.89844 14.5234 5.89844C16.0234 5.89844 19.3047 5.75781 20.7109 6.32031C21.6016 6.64844 22.3047 7.39844 22.6797 8.28906C23.2422 9.69531 23.1016 12.9766 23.1016 14.4766C23.1016 16.0234 23.2422 19.3047 22.6797 20.6641Z" fill="black"/>
</svg>
